<?xml version="1.0" encoding="utf-8"?>
<!-- Uploaded to: SVG Repo, www.svgrepo.com, Generator: SVG Repo Mixer Tools -->
<!DOCTYPE svg PUBLIC "-//W3C//DTD SVG 1.1//EN" "http://www.w3.org/Graphics/SVG/1.1/DTD/svg11.dtd">
<svg fill="#000000" version="1.1" id="Layer_1" xmlns="http://www.w3.org/2000/svg" xmlns:xlink="http://www.w3.org/1999/xlink" 
	 width="800px" height="800px" viewBox="0 0 300 300" enable-background="new 0 0 300 300" xml:space="preserve">
<g>
	<path d="M150,7.5C71.421,7.5,7.5,71.434,7.5,150S71.421,292.5,150,292.5S292.5,228.566,292.5,150S228.579,7.5,150,7.5z
		 M150,278.924c-71.092,0-128.924-57.841-128.924-128.924S78.908,21.076,150,21.076S278.924,78.917,278.924,150
		S221.092,278.924,150,278.924z"/>
	<rect x="110.992" y="136.424" width="78.017" height="27.152"/>
	<path d="M58.402,128.786v2.758c-1.021-0.624-2.14-1.051-3.405-1.051c-3.748,0-6.779,3.036-6.779,6.778v25.457
		c0,3.742,3.031,6.778,6.779,6.778c1.265,0,2.384-0.427,3.405-1.051v2.758c0,6.915,5.186,12.556,11.872,13.396V115.39
		C63.588,116.23,58.402,121.871,58.402,128.786z"/>
	<path d="M245.003,130.493c-1.265,0-2.384,0.427-3.404,1.051v-2.758c0-6.915-5.187-12.556-11.872-13.396v69.221
		c6.686-0.841,11.872-6.481,11.872-13.396v-2.758c1.021,0.624,2.14,1.051,3.404,1.051c3.748,0,6.779-3.036,6.779-6.778v-25.457
		C251.782,133.529,248.751,130.493,245.003,130.493z"/>
	<path d="M90.628,94.033c-7.487,0-13.566,6.079-13.566,13.575v84.783c0,7.496,6.08,13.575,13.566,13.575
		c7.496,0,13.576-6.079,13.576-13.575v-84.783C104.204,100.112,98.124,94.033,90.628,94.033z"/>
	<path d="M209.372,94.033c-7.496,0-13.576,6.079-13.576,13.575v84.783c0,7.496,6.08,13.575,13.576,13.575
		c7.487,0,13.566-6.079,13.566-13.575v-84.783C222.938,100.112,216.859,94.033,209.372,94.033z"/>
</g>
</svg>